<svg width="9" height="10" viewBox="0 0 9 10" fill="none" xmlns="http://www.w3.org/2000/svg">
<path d="M0.308058 0.808058C0.552136 0.563981 0.947864 0.563981 1.19194 0.808058L4.5 4.11612L7.80806 0.808058C8.05214 0.563981 8.44786 0.563981 8.69194 0.808058C8.93602 1.05214 8.93602 1.44786 8.69194 1.69194L5.38388 5L8.69194 8.30806C8.93602 8.55214 8.93602 8.94786 8.69194 9.19194C8.44786 9.43602 8.05214 9.43602 7.80806 9.19194L4.5 5.88388L1.19194 9.19194C0.947864 9.43602 0.552136 9.43602 0.308058 9.19194C0.0639806 8.94786 0.0639806 8.55214 0.308058 8.30806L3.61612 5L0.308058 1.69194C0.0639806 1.44786 0.0639806 1.05214 0.308058 0.808058Z" fill="white"/>
</svg>
