<svg width="38" height="38" viewBox="0 0 38 38" fill="none" xmlns="http://www.w3.org/2000/svg">
    <circle cx="19" cy="19" r="18.5" stroke="#D8C5B2"/>
    <path d="M8 29C9.19188 28.4326 10.2913 27.7044 11.2642 26.8378C12.1201 26.0705 12.2388 25.7568 12.2556 25.5066C12.3294 24.3979 9.87269 24.2807 9.39946 23.0666C8.83915 21.6316 11.5519 20.3053 13.538 17.411C16.7926 12.6709 14.4792 8.99167 17.5596 6.93159C19.201 5.83378 21.6375 5.68567 23.1557 6.59689C24.8903 7.63948 25.2034 9.93468 25.6036 12.8625C26.0091 15.8296 25.3626 16.0747 26.0118 18.3524C26.5976 20.4083 27.4112 21.2166 26.9442 22.3445C26.3355 23.8172 24.2499 24.1251 24.3792 24.6732C24.5173 25.2589 26.8193 24.7033 28.1105 25.8932C28.9655 26.6814 29.0438 27.9273 28.9849 28.8318" stroke="#D8C5B2" stroke-width="0.765597" stroke-miterlimit="10" stroke-linecap="round"/>
    <path d="M13.2759 23.649C13.2759 23.649 10.3609 23.5938 11.8765 21.4317C13.3921 19.2695 16.1866 17.217 16.9474 13.89C17.7083 10.5631 17.9968 8.01273 20.6198 8.01273C23.2428 8.01273 23.826 11.6727 23.826 12.8918C23.826 14.1109 23.3598 15.3435 23.826 17.5006C24.2922 19.6578 25.3996 22.8725 23.826 22.8725" stroke="#D8C5B2" stroke-width="0.765597" stroke-miterlimit="10" stroke-linecap="round"/>
    <path d="M19.5824 15.0268C19.8462 14.2872 19.677 13.5641 19.2046 13.4116C18.7321 13.2591 18.1353 13.7351 17.8715 14.4746C17.6077 15.2142 17.7769 15.9374 18.2494 16.0899C18.7219 16.2423 19.3187 15.7664 19.5824 15.0268Z" fill="#D8C5B2"/>
    <path d="M22.3165 15.0244C22.5241 14.4424 22.3907 13.8732 22.0185 13.7531C21.6463 13.633 21.1763 14.0074 20.9687 14.5895C20.7612 15.1715 20.8946 15.7407 21.2668 15.8608C21.6389 15.9809 22.1089 15.6065 22.3165 15.0244Z" fill="#D8C5B2"/>
</svg>
